<?xml version="1.0" encoding="utf-8"?>
<!-- Generator: Adobe Illustrator 22.1.0, SVG Export Plug-In . SVG Version: 6.00 Build 0)  -->
<svg version="1.1" id="Layer_1" xmlns="http://www.w3.org/2000/svg" xmlns:xlink="http://www.w3.org/1999/xlink" x="0px" y="0px"
	 viewBox="0 0 5281.9 1746" style="enable-background:new 0 0 5281.9 1746;" xml:space="preserve">
<style type="text/css">
	.st0{fill:#3A2E45;}
</style>
<g>
	<path class="st0" d="M506.5,1270.2c45.9-32.8,94.7-70.7,145.1-112.5c-79.8-67.5-130.5-168.5-130.5-281.2
		c0-203.3,164.8-368.2,368.2-368.2c112.8,0,213.7,50.7,281.3,130.6c41.9-50.5,79.7-99.3,112.5-145.1
		c-99.8-102.6-239.3-166.4-393.8-166.4c-303.3,0-549.2,245.9-549.2,549.2C340.1,1030.9,403.9,1170.4,506.5,1270.2z"/>
	<path class="st0" d="M587.4,941.1c4.8,22.6,12.1,44.6,21.8,65.4c60.7-69.8,127.7-141.5,198.3-212.1
		C878,723.9,949.6,657,1019.3,596.3c-20.9-9.7-42.8-17-65.4-21.8c-61.4,54.4-124.7,114-188.5,177.8
		C701.6,816.1,641.8,879.6,587.4,941.1z"/>
	<path class="st0" d="M1505.8,253.3c-35.1-35.1-143.4,10.1-287.9,110.6c17.7,11.4,34.9,23.7,51.4,36.9
		c105.7-71.6,161.5-92,186.7-97.7c-2.7,11.9-8.6,30.5-21.6,57.9c-0.9,0-1.8-0.1-2.7-0.1c-37.5,0-67.8,30.4-67.8,67.8
		c0,13.4,3.9,26,10.7,36.5c-4.9,7.6-10.2,15.5-15.7,23.7c-6.8,10.1-14.1,20.6-21.9,31.6c-4.5,6.4-9.1,12.8-13.8,19.2c0,0,0,0,0,0
		c-2,2.8-4,5.6-6.1,8.4c-0.2,0.3-0.5,0.7-0.7,1c-4.1,5.6-8.3,11.3-12.6,17c-0.3,0.4-0.6,0.8-0.8,1.1c-4.3,5.7-8.6,11.5-13.1,17.3
		c-0.2,0.3-0.5,0.7-0.7,1c-2,2.7-4.1,5.3-6.1,8c-0.2,0.3-0.4,0.6-0.7,0.9c-2.3,2.9-4.5,5.9-6.8,8.8c-0.1,0.2-0.3,0.3-0.4,0.5
		c-2.1,2.7-4.3,5.5-6.4,8.2c-0.3,0.4-0.6,0.8-1,1.2c-4.6,5.8-9.2,11.7-13.9,17.6c-0.4,0.5-0.7,0.9-1.1,1.4
		c-4.7,5.9-9.5,11.8-14.3,17.7c-0.4,0.4-0.7,0.9-1.1,1.3c-2.2,2.7-4.4,5.4-6.7,8.2c-0.2,0.3-0.5,0.6-0.7,0.8c-2.5,3-5,6-7.4,9.1
		c-0.2,0.3-0.5,0.6-0.7,0.9c-2.3,2.7-4.5,5.5-6.8,8.2c-0.4,0.4-0.7,0.9-1.1,1.3c-2.5,3-5.1,6.1-7.6,9.2l0,0
		c-71.5,85.3-153.7,174.8-241.5,262.7c-87.9,87.9-177.5,170.2-262.9,241.7l0,0c-3,2.5-6,5-8.9,7.4c-0.6,0.5-1.2,1-1.8,1.5
		c-2.6,2.2-5.2,4.3-7.8,6.4c-0.4,0.3-0.8,0.6-1.2,1c-2.9,2.4-5.9,4.8-8.8,7.2c-0.5,0.4-1,0.8-1.5,1.2c-2.5,2.1-5,4.1-7.6,6.2
		c-0.5,0.4-1.1,0.9-1.6,1.3c-2.9,2.4-5.8,4.7-8.8,7.1c-0.2,0.2-0.4,0.4-0.7,0.5c-2.7,2.1-5.3,4.3-8,6.4c-0.6,0.5-1.2,0.9-1.8,1.4
		c-5.8,4.6-11.5,9.1-17.2,13.6c-0.6,0.4-1.1,0.9-1.7,1.3c-2.6,2.1-5.3,4.1-7.9,6.2c-0.2,0.2-0.4,0.3-0.7,0.5
		c-2.9,2.2-5.7,4.4-8.6,6.6c-0.5,0.4-0.9,0.7-1.4,1.1c-2.5,1.9-5,3.8-7.5,5.7c-0.4,0.3-0.8,0.6-1.2,1c-2.8,2.2-5.7,4.3-8.5,6.5
		c-0.3,0.2-0.5,0.4-0.8,0.6c-2.6,1.9-5.1,3.9-7.7,5.8c-0.5,0.4-1,0.7-1.5,1.1c-5.6,4.2-11.1,8.3-16.7,12.3c-0.5,0.4-1,0.7-1.5,1.1
		c-2.7,2-5.4,4-8.2,5.9l0,0c-6.4,4.6-12.7,9.1-18.9,13.6c-11.1,7.9-21.7,15.2-31.9,22.1c-104.9,71-160.4,91.3-185.6,96.9
		c5.6-25.2,26-80.9,97.4-186.4c-13.2-16.5-25.5-33.6-36.9-51.4c-100.3,144.4-145.4,252.6-110.4,287.6c34.9,34.9,142.4-9.7,286-109.2
		c16.9-11.7,34.3-24.2,52.2-37.4c83,50.4,180.5,79.5,284.7,79.5c303.3,0,549.2-245.9,549.2-549.2c0-104.2-29.1-201.7-79.5-284.7
		c13.2-17.8,25.7-35.3,37.4-52.2c10.3-14.8,19.9-29.2,29-43.2c2.1,0.2,4.2,0.3,6.4,0.3c37.5,0,67.8-30.4,67.8-67.8
		c0-14.8-4.7-28.4-12.7-39.6C1518.8,322.6,1527,274.5,1505.8,253.3z M1257.5,876.4c0,203.3-164.8,368.2-368.2,368.2
		c-45.2,0-88.5-8.2-128.6-23.1c78.9-67.1,162.2-143.9,246.1-227.8c83.8-83.8,160.5-167,227.6-245.8
		C1249.3,787.9,1257.5,831.2,1257.5,876.4z"/>
</g>
<path class="st0" d="M1566,628.9v785.6h177.4v-392.8c0-125.1,101.4-226.4,226.5-226.5V617.8c-87.3,0-167.9,28-234,75.1
	C1714.8,675.4,1650.4,628.9,1566,628.9z"/>
<path class="st0" d="M2503.8,617.5c-84,0-161.9,25.7-226.5,69.5v-58.4V413.1v-6c0,0-73.5-70.4-177.4-70.4v292v464.3v321.2
	c84.4,0,148.7-46.4,169.9-63.9c66,47.1,146.7,75.1,234,75.1c223.1,0,403.9-180.8,403.9-403.9
	C2907.7,798.3,2726.9,617.5,2503.8,617.5z M2503.8,1247.9c-125.1,0-226.5-101.4-226.5-226.5c0-125.1,101.4-226.5,226.5-226.5
	c125.1,0,226.5,101.4,226.5,226.5C2730.3,1146.5,2628.9,1247.9,2503.8,1247.9z"/>
<path class="st0" d="M4216.1,617.8c-223,0-403.8,180.8-403.8,403.9c0,223.1,180.8,403.9,403.8,403.9c87.3,0,167.9-27.9,234-75.1
	c21.2,17.5,85.6,63.9,170,63.9v-0.1v-259.9v-132.8C4620.1,798.6,4439.3,617.8,4216.1,617.8z M4216.1,1248.2
	c-125,0-226.4-101.4-226.4-226.5c0-125.1,101.4-226.6,226.4-226.6c125.1,0,226.5,101.4,226.5,226.6
	C4442.7,1146.8,4341.3,1248.2,4216.1,1248.2z"/>
<path class="st0" d="M4764.5,336.8v1077.5h177.3V407.5C4941.7,407.5,4868.4,336.8,4764.5,336.8z"/>
<path class="st0" d="M3023.6,1414.5H3201V699.3c0,0-73.5-70.4-177.4-70.4V1414.5z"/>
<path class="st0" d="M3112.3,334c-49,0-88.7,39.7-88.7,88.7c0,49,39.7,88.7,88.7,88.7c49,0,88.7-39.8,88.7-88.7
	C3201,373.7,3161.3,334,3112.3,334z"/>
<path class="st0" d="M3535.2,806.1h156c0,0,70.4-73.5,70.4-177.4h-226.5V413.3v-6c0,0-73.6-70.4-177.4-70.4v493.5v191.3
	c0,223.1,180.9,403.9,403.9,403.9v-177.4c-125.1,0-226.5-101.4-226.5-226.5V812.6V806.1z"/>
</svg>
